<svg viewBox="0 0 700 300" xmlns="http://www.w3.org/2000/svg">
  <rect width="700" height="300" fill="#eef1f5"/>
  <g stroke="#5b6b7c" stroke-width="2" fill="none" opacity="0.6">
    <path d="M60 220 C 90 220, 100 170, 120 170 C 140 170, 150 220, 180 220"/>
    <path d="M180 230 C 210 230, 220 180, 240 180 C 260 180, 270 230, 300 230"/>
    <path d="M300 220 C 330 220, 340 175, 360 175 C 380 175, 390 220, 420 220"/>
  </g>
  <g transform="translate(150,30)">
    <line x1="0" y1="180" x2="380" y2="180" stroke="#5b6b7c" stroke-width="2"/>
    <path d="M0 180 C 60 180, 100 20, 190 20 C 280 20, 320 180, 380 180" fill="none" stroke="#0b1f3a" stroke-width="5"/>
    <line x1="190" y1="180" x2="190" y2="20" stroke="#2f6fed" stroke-width="2" stroke-dasharray="5,4"/>
  </g>
  <text x="220" y="270" font-family="Arial" font-size="14" fill="#5b6b7c">Teorema del límite central</text>
</svg>
