<svg viewBox="0 0 700 300" xmlns="http://www.w3.org/2000/svg">
  <rect width="700" height="300" fill="#eef1f5"/>
  <g transform="translate(220,40)">
    <rect width="260" height="220" rx="10" fill="#ffffff" stroke="#c9d3df" stroke-width="2"/>
    <rect x="20" y="20" width="220" height="14" rx="4" fill="#0b1f3a"/>
    <rect x="20" y="46" width="140" height="10" rx="3" fill="#c9d3df"/>
    <g font-family="Arial" font-size="13" fill="#1b2733">
      <circle cx="30" cy="90" r="8" fill="#fff" stroke="#2f6fed" stroke-width="2"/>
      <circle cx="30" cy="90" r="4" fill="#2f6fed"/>
      <text x="48" y="95">Encuesta</text>

      <circle cx="30" cy="120" r="8" fill="#fff" stroke="#5b6b7c" stroke-width="2"/>
      <text x="48" y="125">Censo</text>

      <circle cx="30" cy="150" r="8" fill="#fff" stroke="#5b6b7c" stroke-width="2"/>
      <text x="48" y="155">Observación</text>

      <circle cx="30" cy="180" r="8" fill="#fff" stroke="#5b6b7c" stroke-width="2"/>
      <text x="48" y="185">Registros</text>
    </g>
    <rect x="20" y="200" width="90" height="26" rx="6" fill="#2f6fed"/>
    <text x="35" y="217" font-family="Arial" font-size="12" fill="#fff">Enviar</text>
  </g>
  <g transform="translate(60,90)">
    <circle cx="50" cy="60" r="50" fill="#0b1f3a"/>
    <path d="M30 60 l15 15 l25 -30" stroke="#fff" stroke-width="6" fill="none" stroke-linecap="round" stroke-linejoin="round"/>
    <text x="10" y="140" font-family="Arial" font-size="14" fill="#5b6b7c">Fuente de datos</text>
  </g>
</svg>
