<svg viewBox="0 0 700 300" xmlns="http://www.w3.org/2000/svg">
  <rect width="700" height="300" fill="#eef1f5"/>
  <g transform="translate(60,60)">
    <rect width="260" height="180" rx="8" fill="#ffffff" stroke="#c9d3df" stroke-width="2"/>
    <rect width="260" height="34" rx="8" fill="#0b1f3a"/>
    <rect y="0" width="260" height="34" fill="#0b1f3a"/>
    <text x="20" y="23" fill="#fff" font-family="Arial" font-size="14" font-weight="bold">Variable</text>
    <text x="160" y="23" fill="#fff" font-family="Arial" font-size="14" font-weight="bold">Tipo</text>
    <line x1="0" y1="34" x2="260" y2="34" stroke="#c9d3df"/>
    <g font-family="Arial" font-size="13" fill="#1b2733">
      <text x="20" y="60">Ingresos</text><text x="160" y="60">Cuantitativa</text>
      <line x1="0" y1="70" x2="260" y2="70" stroke="#e2e6ea"/>
      <text x="20" y="95">Sector</text><text x="160" y="95">Cualitativa</text>
      <line x1="0" y1="105" x2="260" y2="105" stroke="#e2e6ea"/>
      <text x="20" y="130">Empleados</text><text x="160" y="130">Cuantitativa</text>
      <line x1="0" y1="140" x2="260" y2="140" stroke="#e2e6ea"/>
      <text x="20" y="165">Región</text><text x="160" y="165">Cualitativa</text>
    </g>
  </g>
  <g transform="translate(400,70)">
    <circle cx="30" cy="30" r="22" fill="#2f6fed"/>
    <circle cx="90" cy="30" r="22" fill="#5b6b7c"/>
    <circle cx="150" cy="30" r="22" fill="#2f6fed"/>
    <circle cx="60" cy="90" r="22" fill="#5b6b7c"/>
    <circle cx="120" cy="90" r="22" fill="#2f6fed"/>
    <circle cx="90" cy="150" r="22" fill="#5b6b7c"/>
    <text x="10" y="200" font-family="Arial" font-size="14" fill="#5b6b7c">Población y muestra</text>
  </g>
</svg>
